<?xml version="1.0" encoding="iso-8859-1"?>
<!-- Generator: Adobe Illustrator 19.0.0, SVG Export Plug-In . SVG Version: 6.00 Build 0)  -->
<svg version="1.1" id="Layer_1" xmlns="http://www.w3.org/2000/svg" xmlns:xlink="http://www.w3.org/1999/xlink" x="0px" y="0px"
	 viewBox="0 0 512 512" style="enable-background:new 0 0 512 512;" xml:space="preserve">
<path style="fill:#F4BA48;" d="M361.931,105.931H150.069V17.655c0-9.71,7.945-17.655,17.655-17.655h176.552
	c9.71,0,17.655,7.945,17.655,17.655V105.931z"/>
<path style="fill:#BD9139;" d="M361.931,105.931c0,58.262-4.414,75.034-35.31,105.931H185.379
	c-30.897-30.897-35.31-47.669-35.31-105.931H361.931z"/>
<path style="fill:#F4BA48;" d="M308.966,512H203.034c-9.71,0-17.655-7.945-17.655-17.655V211.862h141.241v282.483
	C326.621,504.055,318.676,512,308.966,512"/>
<path style="fill:#A3AAAF;" d="M291.31,282.483c0-19.421-15.89-35.31-35.31-35.31s-35.31,15.89-35.31,35.31s15.89,35.31,35.31,35.31
	S291.31,301.903,291.31,282.483"/>
<path style="fill:#E0E0E0;" d="M256,317.793c-19.421,0-35.31-15.89-35.31-35.31v70.621c0,19.421,15.89,35.31,35.31,35.31
	s35.31-15.89,35.31-35.31v-70.621C291.31,301.903,275.421,317.793,256,317.793"/>
<g>
	<path style="fill:#BD9139;" d="M291.31,52.966H220.69c-5.297,0-8.828-3.531-8.828-8.828s3.531-8.828,8.828-8.828h70.621
		c5.297,0,8.828,3.531,8.828,8.828S296.607,52.966,291.31,52.966"/>
	<path style="fill:#BD9139;" d="M326.621,35.31c-5.297,0-8.828,3.531-8.828,8.828s3.531,8.828,8.828,8.828h35.31V35.31H326.621z"/>
	<path style="fill:#BD9139;" d="M185.379,52.966c5.297,0,8.828-3.531,8.828-8.828s-3.531-8.828-8.828-8.828h-35.31v17.655H185.379z"
		/>
</g>
<g>
</g>
<g>
</g>
<g>
</g>
<g>
</g>
<g>
</g>
<g>
</g>
<g>
</g>
<g>
</g>
<g>
</g>
<g>
</g>
<g>
</g>
<g>
</g>
<g>
</g>
<g>
</g>
<g>
</g>
</svg>
